inDegrees=yes
name=ik_Xsens_quaternion
DataType=double
version=3
OpenSimVersion=4.4-2022-07-23-0e9fedc
endheader
time	pelvis_tilt	pelvis_list	pelvis_rotation	pelvis_tx	pelvis_ty	pelvis_tz	hip_flexion_r	hip_adduction_r	hip_rotation_r	knee_angle_r	knee_angle_r_beta	ankle_angle_r	subtalar_angle_r	mtp_angle_r	hip_flexion_l	hip_adduction_l	hip_rotation_l	knee_angle_l	knee_angle_l_beta	ankle_angle_l	subtalar_angle_l	mtp_angle_l	lumbar_extension	lumbar_bending	lumbar_rotation	arm_flex_r	arm_add_r	arm_rot_r	elbow_flex_r	pro_sup_r	wrist_flex_r	wrist_dev_r	arm_flex_l	arm_add_l	arm_rot_l	elbow_flex_l	pro_sup_l	wrist_flex_l	wrist_dev_l
0	-7.52704573537271e-45	-4.014424392198779e-44	4.014424392198779e-44	-5.254869241218064e-46	0.93	8.407790785948902e-45	5.38806921148701e-36	2.694034605743505e-36	3.232841526892206e-35	2.426570649309934e-20	-1.223282199921035e-23	-2.694034605743505e-36	-6.465683053784412e-35	-3.946339754507087e-39	1.616420763446103e-35	2.020525954307629e-36	5.38806921148701e-36	2.426570649309934e-20	-7.078556063842027e-23	-2.020525954307629e-36	-2.155227684594804e-35	-3.946339754507087e-39	1.077613842297402e-35	1.077613842297402e-35	8.620910738379216e-35	-0.2909715006594056	-0.08265905041787308	-85.87919943609488	-0.09119464618612756	11.26320395141534	-6.166155866417324e-41	9.865849386267719e-40	-0.3099222484207378	-1.810419596390819	-23.19670523140012	4.625926426066382	132.7958774446373	-1.233231173283465e-40	2.630893169671392e-39
0.01666666666666667	0	0	0	0	0.93	0	0	0	0	0	0	0	0	0	0	0	0	0	0	0	0	0	0	0	0	-0.2259357655159744	-0.1559172152353035	-85.87019472624345	-0.2051668824799326	11.12795248371873	0	0	-0.349319445101458	-1.791060399921678	-23.18634164187603	4.691164486422941	132.7565380782915	0	0
0.03333333333333333	0	0	0	0	0.93	0	4.594144125593695e-49	0	0	2.426570649309934e-20	0	0	0	0	4.594144125593695e-49	0	0	2.426570649309934e-20	0	0	0	0	0	0	0	-0.1755531472973874	-0.2090569446483738	-85.84253595669163	-0.3199413943631115	11.03989701146004	0	0	-0.348716879712408	-1.78642524015515	-23.16307246027338	4.636094273069159	132.7853865400365	0	0
0.05	0	0	0	0	0.93	0	0	0	0	0	0	0	0	0	0	0	0	0	0	0	0	0	0	0	0	-0.1128311609000831	-0.1709283723545706	-85.8661487134389	-0.3505478146214088	10.99162785234974	0	0	-0.3325537970898643	-1.805993811515622	-23.09829197419571	4.472450855164737	132.7209958463303	0	0
0.06666666666666667	0	0	0	0	0.93	0	2.297072062796848e-49	0	0	1.213285324654967e-20	0	0	0	0	2.297072062796848e-49	0	0	1.213285324654967e-20	0	0	0	0	0	0	0	-0.07087548392064896	-0.1274242866955384	-85.90881184184832	-0.3931378700736225	10.9596399232108	0	0	-0.2777942902631912	-1.841048612027252	-23.02678934835483	4.27695504322952	132.6436675326815	0	0
0.08333333333333333	0	0	0	0	0.93	0	0	0	0	0	0	0	0	0	0	0	0	0	0	0	0	0	0	0	0	-0.02360198237045303	-0.06491969764836411	-85.95330653873191	-0.4497144550452806	10.92483204337274	0	0	-0.2001502943197139	-1.90494981415193	-22.96696197069667	4.099873233372035	132.5192433583231	0	0
0.1	1.379598687188225e-26	-7.739396347193939e-26	2.467368173140521e-25	3.019246967106898e-27	0.93	-5.315502264920479e-27	3.708500874945177e-16	-6.818219450352917e-17	-1.565290980265713e-15	0	5.009573150564255e-17	2.85073710955542e-17	-6.171841230047792e-17	3.892618920533522e-17	-3.704161343171981e-15	-1.400775747172788e-14	5.431733086417474e-15	0	-5.580660530944354e-17	1.585773321889386e-17	4.733887128314176e-17	-1.908268664498154e-19	1.960643992130199e-14	4.253762490310631e-15	-4.560808465873413e-15	0.009526911701266204	-0.01326304320159379	-85.94879618326816	-0.5079948052024988	10.8504387769194	-9.30883313077148e-19	1.318531895019465e-19	-0.1273560127801239	-1.975230999551786	-22.85049636729708	3.919033589857416	132.269124228838	5.456224928165135e-19	-3.037018049355481e-22
0.1166666666666667	2.537168190663804e-28	-3.78624313605666e-19	-7.838139500422172e-27	-8.291767573387333e-24	0.93	-6.85979506966225e-23	-1.804273157750369e-34	3.621914666844458e-21	-3.643715364153882e-32	0	-9.005060200321749e-18	9.36367669662178e-22	-2.368514831583853e-22	3.702492074687857e-14	7.482246682239773e-21	7.053952450294564e-31	-7.580840704685676e-22	0	-8.833261049649044e-18	1.302346570532455e-23	-1.017689606921104e-15	-1.404833067360138e-14	4.91423531432976e-27	1.327415229055991e-24	-2.32526522394558e-23	0.04585964587178099	0.03869611724382187	-85.95652302715582	-0.5848730583854442	10.85012524274757	-1.036601450529331e-21	-3.626813957423565e-20	-0.06477704399821563	-2.049748817920543	-22.76453843424632	3.798789636801097	132.0957107171089	4.407984132427289e-21	-2.761888036658147e-22
0.1333333333333333	-3.786195522008572e-26	-8.439907464804543e-26	-5.055278549315697e-17	1.291586169020103e-18	0.93	-2.065763965202237e-27	-1.781673404913522e-24	-1.057675799830915e-25	-5.454875790713287e-14	3.451326104489244e-16	-9.763043406137859e-17	6.124453658985815e-16	-3.066212441983919e-16	-1.691617516497667e-18	1.578680794820681e-15	-2.495864704441907e-16	2.272959900288597e-15	0	1.750793569700979e-15	-1.411589530970122e-16	-5.756999954257153e-16	-1.904613357586884e-20	-1.226101212548376e-14	7.268678856866411e-15	1.867494257053341e-15	0.06275691364355708	0.08395041050723957	-85.93637014307247	-0.6854080322747462	10.86705513465207	7.170384162753442e-21	1.917474145287246e-22	-0.02107833941975371	-2.10222982654119	-22.65478518110284	3.687549141475787	131.8741534766631	-4.336265925329621e-22	1.78996334633517e-22
0.15	6.863895847797392e-26	1.619063491294064e-26	1.026335039626439e-16	-2.854562968325745e-18	0.93	-1.302198235282994e-19	-2.434037193464438e-16	-9.809706733945914e-17	5.442833561403063e-15	0	4.164198314293857e-17	3.862521751003755e-24	-4.757870225205126e-25	-6.008551174837716e-22	5.864571747624114e-15	-1.463361107600496e-14	3.802054669164283e-15	0	-1.688557170441051e-16	-1.853330854843757e-23	-7.078945523570214e-25	1.869485396101046e-21	6.106814167179526e-15	-1.045886764080382e-15	1.775126731048944e-15	0.0807865577172176	0.1221879238626323	-85.94445454001287	-0.7947631078158134	10.90662518843568	9.693096243825181e-24	1.354706994521351e-21	0.008855452887148835	-2.144808647530163	-22.56976004625765	3.623770037498484	131.6755753739932	1.331304907387646e-23	1.674802858784467e-20
0.1666666666666667	0	0	0	0	0.93	0	0	0	0	0	0	0	0	0	0	0	0	4.728654771303044e-40	-5.877471754111438e-39	0	0	0	0	0	0	0.08500212509279284	0.1573522967511675	-85.93452748153854	-0.9120114648777644	10.96197858358149	0	0	0.01733525992619147	-2.178161391934761	-22.54153713276541	3.594773273577629	131.5573597624831	0	0
0.1833333333333333	2.825825916565404e-28	-7.081470696689491e-24	-1.903970982497419e-27	3.271825641493423e-28	0.93	0	-2.62184137503817e-27	-3.985798949328466e-20	7.771603650052737e-21	0	-7.500026173981437e-18	-8.927983551190786e-25	-6.416839870166764e-26	1.980373567358515e-23	8.394666018949847e-21	3.050342089696999e-19	5.18606900721146e-19	0	-7.5000258198531e-18	-1.616458645796906e-24	-8.674981090530331e-27	-8.010259408160364e-23	-1.120184253651221e-19	5.068643475500243e-20	-3.188839349687122e-18	0.08135713659059977	0.1858612716385906	-85.93198645667376	-1.035064351310828	11.04536071013877	-2.283906956987805e-25	3.853770995452478e-25	0.0122258352735538	-2.20024009122665	-22.53327753728153	3.588360200516	131.5057344723666	2.291542352797487e-26	3.699652924474736e-24
0.2	0	0	0	0	0.93	0	0	0	0	0	0	0	0	0	0	0	0	0	0	0	0	0	0	0	0	0.07677329021857424	0.2137271598380355	-85.90018118145508	-1.149433198722201	11.08124265423555	0	0	-0.0003987838472886867	-2.213303518815116	-22.5521288289475	3.596211079738913	131.5278904345033	0	0
0.2166666666666667	0	0	0	0	0.93	0	0	0	0	0	0	0	0	0	0	0	0	0	0	0	0	0	0	0	0	0.0731913709808872	0.2441643291399493	-85.85383136618245	-1.252989380154736	11.08971823550913	0	0	-0.01247597083122134	-2.215272867750377	-22.56800788698212	3.614372204241347	131.5964280430075	0	0
0.2333333333333333	0	0	0	0	0.93	0	0	0	0	0	3.931155386390626e-23	0	0	0	0	0	0	0	3.931155386390626e-23	0	0	0	0	0	0	0.07133881524087858	0.2787653259719085	-85.84284518871024	-1.348211842260831	11.11190853777626	0	0	-0.02543345232986943	-2.219174334796712	-22.58684402248836	3.635870464522253	131.6716004196521	0	0
0.25	0	0	0	0	0.93	0	0	0	0	1.052357267868557e-38	0	0	0	0	0	0	0	1.052357267868557e-38	0	0	0	0	0	0	0	0.07014075230129262	0.3199852073378197	-85.8261531618697	-1.445715799415189	11.09981903422139	0	0	-0.05243031800423763	-2.231510327216795	-22.58849362649695	3.653286159021705	131.7240916918386	0	0
0.2666666666666667	0	0	0	0	0.93	0	0	0	0	0	3.931155386390626e-23	0	0	0	0	0	0	0	3.931155386390626e-23	0	0	0	0	0	0	0.06150539046023321	0.3610615315316458	-85.79362485872419	-1.52341450331422	11.08443672834654	0	0	-0.06993955724073228	-2.232516713041262	-22.58992254338339	3.672828171410547	131.7257788029784	0	0
0.2833333333333333	0	0	0	0	0.93	0	0	0	0	3.707496980659054e-38	1.965577693195313e-23	0	0	0	0	0	0	3.707496980659054e-38	1.965577693195313e-23	0	0	0	0	0	0	0.05157217871607608	0.4090729625181394	-85.76112215078005	-1.586349203961475	11.06960577916258	0	0	-0.09543174454444617	-2.245512372426107	-22.58692249054636	3.685831419981658	131.6819138782029	0	0
0.3	0	0	0	0	0.93	0	0	0	0	0	9.827888465976565e-24	0	0	0	0	0	0	0	9.827888465976565e-24	0	0	0	0	0	0	0.04525279136752985	0.4660973971107878	-85.73254050758619	-1.631908871440961	11.02011065501634	0	0	-0.1242697471268634	-2.263885398682118	-22.59255226291015	3.702575853171043	131.6268620966918	0	0
0.3166666666666667	0	0	0	0	0.93	0	0	0	0	0	9.82788846597582e-24	0	0	0	0	0	0	0	9.82788846597582e-24	0	0	0	0	0	0	0.03021223081688687	0.5160589075126694	-85.71227508777409	-1.662926878289524	10.94802091782337	0	0	-0.1468855833471186	-2.25762333240937	-22.59691997665242	3.757896257176771	131.5555427173478	0	0
0.3333333333333333	0	0	0	0	0.93	0	4.594144125593695e-49	0	0	2.426570649309934e-20	-4.25875166858992e-23	0	0	0	4.594144125593695e-49	0	0	2.426570649309934e-20	-4.25875166858992e-23	0	0	0	0	0	0	0.01893550247551971	0.5736547896648079	-85.6955738504456	-1.678407281537248	10.94131604691804	0	0	-0.1750952667850018	-2.282946781432094	-22.64559541843362	3.767573865639005	131.569439052541	0	0
0.35	0	0	0	0	0.93	0	0	0	0	0	-7.125219137833065e-23	0	0	0	0	0	0	0	-7.125219137833065e-23	0	0	0	0	0	0	-2.394070729511136e-06	0.6392415567887171	-85.67494863476057	-1.678826455644965	10.92306930210662	0	0	-0.2159786951121175	-2.283432312775774	-22.72287629583552	3.807894066012869	131.6185687272641	0	0
0.3666666666666666	0	0	0	0	0.93	0	0	0	0	0	-2.350988701644575e-38	0	0	0	0	0	0	0	-2.350988701644575e-38	0	0	0	0	0	0	-0.02206816819369064	0.6944630413585122	-85.66642385257308	-1.667311476421216	10.89108327533268	0	0	-0.2455617842466523	-2.298680038296265	-22.7985854821973	3.85206532983315	131.6619897700299	0	0
0.3833333333333333	0	0	0	0	0.93	0	0	0	0	0	0	0	0	0	0	0	0	0	0	0	0	0	0	0	0	-0.03777266379478308	0.7472717878269122	-85.66986268122452	-1.649262502084498	10.88687827873106	0	0	-0.2780441569557197	-2.295364648514437	-22.8610539816345	3.887012968853445	131.7113772590122	0	0
0.4	0	0	0	0	0.93	0	3.445608094195272e-49	0	0	1.819927986982451e-20	-3.931155386390627e-23	0	0	0	3.445608094195272e-49	0	0	1.819927986982451e-20	-3.931155386390627e-23	0	0	0	0	0	0	-0.05275267030998298	0.7929356777380141	-85.67660646819101	-1.62431575349821	10.89092063797936	0	0	-0.3090402618794865	-2.297514553144676	-22.90154152491716	3.92165268202966	131.748082447299	0	0
0.4166666666666667	0	0	0	0	0.93	0	3.445608094195272e-49	0	0	1.819927986982451e-20	-2.948366539792971e-23	0	0	0	3.445608094195272e-49	0	0	1.819927986982451e-20	-2.948366539792971e-23	0	0	0	0	0	0	-0.06902066298401903	0.8347910081932653	-85.69908572286829	-1.590655221410732	10.91222791013316	0	0	-0.3421310194653615	-2.29815798494459	-22.93654993052168	3.955482976071119	131.7666082100431	0	0
0.4333333333333333	0	0	0	0	0.93	0	3.445608094195272e-49	0	0	1.819927986982451e-20	1.719880481545898e-23	0	0	0	3.445608094195272e-49	0	0	1.819927986982451e-20	1.719880481545898e-23	0	0	0	0	0	0	-0.08200819184096057	0.8738184009442921	-85.69154701650271	-1.552317365192249	10.89501001302674	0	0	-0.3773771951631539	-2.300362143182524	-22.95514968566554	3.991908364938289	131.7590320669873	0	0
0.45	0	0	0	0	0.93	0	2.297072062796848e-49	0	0	1.213285324654967e-20	8.59940240772949e-24	0	0	0	2.297072062796848e-49	0	0	1.213285324654967e-20	8.59940240772949e-24	0	0	0	0	0	0	-0.112752586809641	0.8917314113282717	-85.6956787555493	-1.530544892434491	10.90912259646138	0	0	-0.4067972388050964	-2.300898032046827	-22.95386003173029	4.010922412673557	131.7291266289256	0	0
